<?xml version="1.0" encoding="utf-8"?>
<!-- Generator: Adobe Illustrator 11.0, SVG Export Plug-In  -->
<!DOCTYPE svg PUBLIC "-//W3C//DTD SVG 1.0//EN"    "http://www.w3.org/TR/2001/REC-SVG-20010904/DTD/svg10.dtd" [
	<!ENTITY ns_flows "http://ns.adobe.com/Flows/1.0/">
	<!ENTITY ns_svg "http://www.w3.org/2000/svg">
	<!ENTITY ns_xlink "http://www.w3.org/1999/xlink">
]>
<svg  xmlns="&ns_svg;" xmlns:xlink="&ns_xlink;" xmlns:a="http://ns.adobe.com/AdobeSVGViewerExtensions/3.0/"
	 width="757" height="895" viewBox="-0.5 -0.1035 757 895" xml:space="preserve">
	<defs>
	</defs>
	<g>
		<g>
			<path fill="#E3E3E2" d="M377.7734,893.5098c-55.1382-43.8848-86.6465-52.8877-122.6548-52.8877s-97.8975,0-159.7871,0
				S0.5,793.3623,0.5,746.1006V0.5h377.2734"/>
			<path fill="none" stroke="#000000" d="M377.7734,893.5098c-55.1382-43.8848-86.6465-52.8877-122.6548-52.8877
				s-97.8975,0-159.7871,0S0.5,793.3623,0.5,746.1006V0.5h377.2734"/>
		</g>
		<g>
			<path fill="#BBBBBB" d="M377.7949,893.5098c55.1387-43.8848,86.6465-52.8877,122.6533-52.8877c36.0107,0,97.8975,0,159.7871,0
				c61.8906,0,94.834-47.2598,94.834-94.5215V0.5H377.7949"/>
			<path fill="none" stroke="#000000" d="M377.7949,893.5098c55.1387-43.8848,86.6465-52.8877,122.6533-52.8877
				c36.0107,0,97.8975,0,159.7871,0c61.8906,0,94.834-47.2598,94.834-94.5215V0.5H377.7949"/>
		</g>
		<path fill="#FFFFFF" d="M399.4248,510.1162h-71.1563c-0.5-1.7344-2.8125-8.0469-6.9063-18.9531s-6.1406-20.4375-6.1406-28.625
			c0-15.6094,2.1563-30.6094,6.5-44.9844s10.7188-27.8125,19.1406-40.3281s25.0938-32.5313,50-60.0313
			s37.3594-50.1875,37.3594-68.0313c0-34.6875-22.75-52.0469-68.2344-52.0469c-22.125,0-45.25,11.3438-69.3594,34l-38.4063-72
			c32.0938-25.3281,74.2813-38,126.5313-38c40.3125,0,73.9688,11.1563,100.9688,33.4375c27,22.2969,40.5,51.8906,40.5,88.7969
			c0,25.2656-4.9219,46.625-14.7344,64.0938s-27.0938,37.9531-51.8125,61.4844c-24.7344,23.5313-40.8281,43.1094-48.2813,58.7031
			c-7.4531,15.6094-11.1719,32.7031-11.1719,51.2813C394.2217,482.8818,395.9561,493.2725,399.4248,510.1162z M367.4092,561.1162
			c16.9063,0,31.2813,5.9531,43.0938,17.8594s17.7188,26.2813,17.7188,43.1406c0,16.875-5.9063,31.25-17.7188,43.1563
			c-11.8125,11.8906-26.1875,17.8438-43.0938,17.8438c-16.9219,0-31.3438-5.9531-43.2813-17.8438
			c-11.9375-11.9063-17.9063-26.2813-17.9063-43.1563c0-16.8594,5.9688-31.2344,17.9063-43.1406
			S350.4873,561.1162,367.4092,561.1162z"/>
	</g>
</svg>
