<?xml version="1.0" encoding="utf-8"?><svg xmlns="http://www.w3.org/2000/svg" xmlns:xlink="http://www.w3.org/1999/xlink"><symbol viewBox="0 0 512 512" class="asvg-inline--fa afa-chevron-circle-left afa-w-16 afa-9x" id="chevron-circle-left" xmlns="http://www.w3.org/2000/svg"><path fill="currentColor" d="M504 256C504 119 393 8 256 8S8 119 8 256s111 248 248 248 248-111 248-248zM256 472c-118.7 0-216-96.1-216-216 0-118.7 96.1-216 216-216 118.7 0 216 96.1 216 216 0 118.7-96.1 216-216 216zm-86.6-224.5l115.1-115c4.7-4.7 12.3-4.7 17 0l7.1 7.1c4.7 4.7 4.7 12.3 0 17L209 256l99.5 99.5c4.7 4.7 4.7 12.3 0 17l-7.1 7.1c-4.7 4.7-12.3 4.7-17 0l-115.1-115c-4.6-4.8-4.6-12.4.1-17.1z"/></symbol><symbol viewBox="0 0 512 512" class="bsvg-inline--fa bfa-chevron-circle-right bfa-w-16 bfa-9x" id="chevron-circle-right" xmlns="http://www.w3.org/2000/svg"><path fill="currentColor" d="M8 256c0 137 111 248 248 248s248-111 248-248S393 8 256 8 8 119 8 256zM256 40c118.7 0 216 96.1 216 216 0 118.7-96.1 216-216 216-118.7 0-216-96.1-216-216 0-118.7 96.1-216 216-216zm86.6 224.5l-115.1 115c-4.7 4.7-12.3 4.7-17 0l-7.1-7.1c-4.7-4.7-4.7-12.3 0-17L303 256l-99.5-99.5c-4.7-4.7-4.7-12.3 0-17l7.1-7.1c4.7-4.7 12.3-4.7 17 0l115.1 115c4.6 4.8 4.6 12.4-.1 17.1z"/></symbol><symbol fill="none" viewBox="0 0 18 14" id="cuccess" xmlns="http://www.w3.org/2000/svg"><path d="M1 8l5 5L17 1" stroke="#fff" stroke-width="1.5" stroke-linecap="round" stroke-linejoin="round"/></symbol><symbol viewBox="0 0 448 512" id="plus-solid" xmlns="http://www.w3.org/2000/svg"><!--! Font Awesome Pro 6.2.1 by @fontawesome - https://fontawesome.com License - https://fontawesome.com/license (Commercial License) Copyright 2022 Fonticons, Inc.--><path d="M256 80c0-17.7-14.3-32-32-32s-32 14.3-32 32v144H48c-17.7 0-32 14.3-32 32s14.3 32 32 32h144v144c0 17.7 14.3 32 32 32s32-14.3 32-32V288h144c17.7 0 32-14.3 32-32s-14.3-32-32-32H256V80z"/></symbol><symbol fill="none" viewBox="0 0 16 16" id="pluss" xmlns="http://www.w3.org/2000/svg"><path d="M1 8h7m7 0H8m0 0V1m0 7v7" stroke="#fff" stroke-width="1.5" stroke-linecap="round" stroke-linejoin="round"/></symbol><symbol fill="none" viewBox="0 0 24 24" id="trash" xmlns="http://www.w3.org/2000/svg"><path fill-rule="evenodd" clip-rule="evenodd" d="M10.621 1.25h2.758c.513 0 .963-.001 1.363.156.35.138.661.362.903.65.276.331.418.758.58 1.245l.034.103.282.846H22a.75.75 0 010 1.5h-1.293l-.604 10.27-.002.032c-.06 1.033-.109 1.853-.2 2.513-.095.676-.242 1.246-.533 1.764a4.75 4.75 0 01-2.058 1.94c-.534.261-1.111.374-1.792.428-.664.053-1.486.053-2.52.053H11.002c-1.035 0-1.857 0-2.521-.053-.68-.054-1.258-.167-1.792-.427a4.75 4.75 0 01-2.058-1.941c-.291-.518-.438-1.088-.532-1.764-.092-.66-.14-1.48-.201-2.513l-.002-.032-.604-10.27H2a.75.75 0 110-1.5h5.46l.281-.846.035-.103c.161-.487.303-.914.58-1.244a2.25 2.25 0 01.902-.65c.4-.158.85-.158 1.363-.157zm4.338 3H9.041l.123-.372c.217-.65.273-.776.342-.859a.75.75 0 01.3-.217c.1-.04.238-.052.924-.052h2.54c.686 0 .823.013.923.052a.75.75 0 01.301.217c.07.083.125.209.341.86l.124.371zM10.75 10a.75.75 0 00-1.5 0v7a.75.75 0 001.5 0v-7zm4 0a.75.75 0 00-1.5 0v4a.75.75 0 001.5 0v-4z" fill="#3D3598"/></symbol></svg>